<svg xmlns="http://www.w3.org/2000/svg" viewBox="0 0 3.89 4.01"><defs><style>.cls-1{fill:none;stroke:#606060;stroke-linecap:round;stroke-linejoin:round;stroke-width:0.25px;}</style></defs><title>users</title><g id="Шар_2" data-name="Шар 2"><g id="OBJECTS"><path class="cls-1" d="M2.91,1.1a1,1,0,0,1-.33.72,1,1,0,0,1-1.29,0A.91.91,0,0,1,1,1.1a1,1,0,0,1,2,0Z"/><path class="cls-1" d="M1,3.88A.87.87,0,0,1,.38,2.39a2.11,2.11,0,0,1,.91-.57,1,1,0,0,0,1.29,0,2.28,2.28,0,0,1,1,.66.87.87,0,0,1-.7,1.4Z"/></g></g></svg>